<svg width="46" height="52" viewBox="0 0 46 52" fill="none" xmlns="http://www.w3.org/2000/svg">
<path d="M13.5981 19.1101L22.1689 14.1433C22.6837 13.8404 23.3197 13.8404 23.8346 14.1433L32.3448 19.0495L44.5498 12.1444L24.41 0.514847C23.5317 -5.03659e-06 22.4717 -5.03659e-06 21.6237 0.514847L1.45367 12.1444L13.5981 19.1101Z" fill="url(#paint0_linear_3579_79)"/>
<path d="M33.8292 21.018V31.4059C33.8292 32.0116 33.4961 32.5568 32.9812 32.8596L24.1379 37.9779V51.9091L44.5199 40.1584C45.3982 39.6436 45.9131 38.735 45.9131 37.7356V14.1736L33.8292 21.018Z" fill="url(#paint1_linear_3579_79)"/>
<path d="M21.8968 37.9779L13.0535 32.8596C12.5387 32.5568 12.2055 32.0116 12.2055 31.4059V21.018L0.121643 14.1736V37.7356C0.121643 38.735 0.66678 39.6738 1.51477 40.1584L21.8666 51.9091V37.9779H21.8968Z" fill="url(#paint2_linear_3579_79)"/>
<defs>
<linearGradient id="paint0_linear_3579_79" x1="1.45095" y1="19.1321" x2="44.5554" y2="19.1321" gradientUnits="userSpaceOnUse">
<stop stop-color="#1895FF"/>
<stop offset="1" stop-color="#64C4FF"/>
</linearGradient>
<linearGradient id="paint1_linear_3579_79" x1="24.1247" y1="51.9132" x2="45.8938" y2="51.9132" gradientUnits="userSpaceOnUse">
<stop stop-color="#FFB800"/>
<stop offset="1" stop-color="#FFD03B"/>
</linearGradient>
<linearGradient id="paint2_linear_3579_79" x1="0.121643" y1="14.1736" x2="0.121643" y2="51.9091" gradientUnits="userSpaceOnUse">
<stop stop-color="#FF6060"/>
<stop offset="1" stop-color="#FF4F4F"/>
</linearGradient>
</defs>
</svg>
